Coordinates
version=1
nRows=13
nColumns=38
inDegrees=no

Units are S.I. units (second, meters, Newtons, ...)
If the header above contains a line with 'inDegrees', this indicates whether rotational values are in degrees (yes) or radians (no).

endheader
time	pelvis_tilt	pelvis_list	pelvis_rotation	pelvis_tx	pelvis_ty	pelvis_tz	hip_flexion_r	hip_adduction_r	hip_rotation_r	knee_angle_r	ankle_angle_r	subtalar_angle_r	mtp_angle_r	hip_flexion_l	hip_adduction_l	hip_rotation_l	knee_angle_l	ankle_angle_l	subtalar_angle_l	mtp_angle_l	lumbar_extension	lumbar_bending	lumbar_rotation	arm_flex_r	arm_add_r	arm_rot_r	elbow_flex_r	pro_sup_r	wrist_flex_r	wrist_dev_r	arm_flex_l	arm_add_l	arm_rot_l	elbow_flex_l	pro_sup_l	wrist_flex_l	wrist_dev_l
0	2.32165	1.35334	2.46337	0.368389	1.58526	0.981737	0.823172	-0.117647	0.339023	0.967336	0.00323255	0	0	-0.0554029	0.0862986	-0.332864	0.464442	-0.0580795	0	0	-0.0719121	-0.20272	0.209613	0.0704217	-0.526979	0.955848	0.721633	0.588153	0	0	0.272624	-0.505225	1.31278	0.770067	0.101989	0	0
0.01	2.34354	1.35327	2.44612	0.367931	1.57388	0.980559	0.824672	-0.112369	0.34019	0.983718	-0.0128221	0	0	-0.0591371	0.0827666	-0.316857	0.469081	-0.0634328	0	0	-0.0659844	-0.200164	0.204346	0.0683975	-0.521872	0.957194	0.718462	0.588936	0	0	0.260635	-0.508998	1.29505	0.768114	0.123454	0	0
0.02	2.3641	1.3544	2.42855	0.36723	1.56199	0.979659	0.821535	-0.107052	0.341603	0.993263	-0.0221938	0	0	-0.0601338	0.0737484	-0.314275	0.4857	-0.0674301	0	0	-0.0599911	-0.19665	0.204221	0.0627492	-0.518073	0.955586	0.717065	0.587997	0	0	0.250701	-0.510289	1.28371	0.768214	0.123937	0	0
0.03	2.3661	1.35684	2.42356	0.365747	1.55074	0.979176	0.815197	-0.100631	0.345975	0.999481	-0.0333358	0	0	-0.0625776	0.0654128	-0.319383	0.507233	-0.0734333	0	0	-0.0581569	-0.195043	0.208048	0.0617477	-0.516038	0.958884	0.717194	0.585261	0	0	0.244184	-0.512471	1.27504	0.767844	0.13023	0	0
0.04	2.37628	1.3592	2.41132	0.364213	1.53967	0.978919	0.807822	-0.0950401	0.347535	1.00135	-0.0446226	0	0	-0.0593142	0.0536857	-0.326018	0.537022	-0.0818543	0	0	-0.0556368	-0.192494	0.210473	0.0624691	-0.513504	0.964461	0.716487	0.581821	0	0	0.237413	-0.514274	1.26465	0.766706	0.138409	0	0
0.05	2.40024	1.35972	2.38542	0.362695	1.52863	0.978711	0.801921	-0.0889153	0.348864	1.00013	-0.0549281	0	0	-0.0482138	0.0388771	-0.335744	0.575415	-0.0945229	0	0	-0.0498015	-0.189594	0.212149	0.0643181	-0.509437	0.9722	0.713449	0.578819	0	0	0.227994	-0.515667	1.24875	0.764624	0.1506	0	0
0.06	2.43124	1.36003	2.3555	0.361514	1.51755	0.978806	0.79823	-0.0841468	0.344149	1.00374	-0.063067	0	0	-0.0316342	0.0208685	-0.343896	0.621635	-0.111155	0	0	-0.0437117	-0.185799	0.210778	0.0660683	-0.504231	0.979057	0.709127	0.57719	0	0	0.217697	-0.516856	1.2304	0.761775	0.166846	0	0
0.07	2.46387	1.36054	2.32642	0.360645	1.50653	0.979262	0.795763	-0.0804607	0.33434	1.01163	-0.069417	0	0	-0.0112016	0.000980152	-0.349231	0.673734	-0.12943	0	0	-0.0392091	-0.181607	0.206207	0.0680938	-0.498592	0.984315	0.704596	0.578535	0	0	0.205997	-0.517949	1.20675	0.75903	0.189694	0	0
0.08	2.48177	1.36182	2.30969	0.359587	1.49579	0.980141	0.79196	-0.0766153	0.325214	1.02052	-0.0750817	0	0	0.00875548	-0.0179604	-0.356671	0.72895	-0.149555	0	0	-0.0355362	-0.179054	0.212708	0.0632677	-0.495339	0.981836	0.702464	0.573584	0	0	0.21453	-0.516936	1.22651	0.753081	0.177633	0	0
0.09	2.49346	1.36329	2.29786	0.35847	1.48531	0.981302	0.786481	-0.073271	0.315655	1.02666	-0.0807619	0	0	0.0305359	-0.0370931	-0.365363	0.78823	-0.178165	0	0	-0.0338325	-0.177093	0.219008	0.0605817	-0.493044	0.981504	0.701246	0.569056	0	0	0.221484	-0.515398	1.24076	0.746787	0.170292	0	0
0.1	2.49957	1.36474	2.29011	0.357233	1.47505	0.982683	0.778563	-0.0702747	0.308212	1.02952	-0.0846367	0	0	0.0535927	-0.0557927	-0.374886	0.84922	-0.211823	0	0	-0.0338423	-0.17616	0.225542	0.060099	-0.491039	0.983464	0.700086	0.564194	0	0	0.227333	-0.514082	1.25016	0.741383	0.165262	0	0
0.11	2.50006	1.36621	2.28711	0.356101	1.46484	0.984241	0.767757	-0.0689186	0.301887	1.0308	-0.0843039	0	0	0.0769859	-0.074485	-0.387802	0.910377	-0.266709	0	0	-0.032144	-0.175026	0.226197	0.0741991	-0.490609	1.02142	0.695899	0.52578	0	0	0.225368	-0.514129	1.24911	0.736662	0.160287	0	0
0.12	2.49515	1.36694	2.28913	0.355192	1.45469	0.985871	0.755121	-0.0702886	0.29628	1.03134	-0.080133	0	0	0.100687	-0.0906423	-0.400457	0.970087	-0.301968	0	0	-0.033418	-0.175954	0.230422	0.0784628	-0.489609	1.03182	0.695061	0.515972	0	0	0.224777	-0.513339	1.24233	0.733487	0.163091	0	0
